<?xml version="1.0" encoding="UTF-8"?>
<svg xmlns="http://www.w3.org/2000/svg" width="400" height="400" viewBox="0 0 400 400">
  <title>Mumble headset layer</title>
  <g id="headset">
    <g id="headband">
      <path
        d="m 152.40625,31.610002 c -24.65159,-0.615413 -49.62289,15.704618 -55.852503,40.126444 -1.451111,5.920437 -2.042948,11.533344 -2.147497,17.25104 0,21.207504 0,42.415014 0,63.622514 8.33333,0 16.66667,0 25,0 0.0881,-22.3821 -0.12668,-44.64411 0.1701,-67.071988 0.76858,-14.243077 11.77335,-29.258147 27.0486,-29.08431 0.11203,22.668722 -0.22918,45.351398 0.18004,68.010988 1.30284,18.42605 18.76217,33.67641 37.24339,32.11401 11.54558,-0.2802 23.17762,0.67313 34.64753,-0.72475 17.46577,-3.27442 29.55308,-21.06252 27.92904,-38.4493 0,-20.285732 0,-40.571465 0,-60.857198 15.88808,-1.160259 27.93757,14.263321 28.64235,29.08431 0.29501,22.427208 0.0825,44.692338 0.1701,67.071988 8.33333,0 16.66667,0 25,0 0,-22.5 0,-45 0,-67.499998 -0.81797,-7.276075 -1.9718,-16.180186 -5.9149,-23.198476 -10.22889,-20.751216 -34.15317,-31.947919 -56.71743,-30.261229 -6.591,-0.83713 -13.68143,3.619737 -15.48689,9.866559 0.10876,26.738504 0.18577,53.486212 -0.015,80.219854 -0.75343,11.19988 -11.79041,19.76398 -22.80523,18.34204 -7.79212,0.33854 -16.59364,0.0136 -21.90827,-6.68171 -7.16232,-7.57045 -4.76318,-18.40537 -5.18362,-27.81167 0.0193,-21.718966 -0.0713,-43.418377 0.1249,-65.100368 -3.25934,-6.591257 -10.50309,-9.993605 -17.67905,-8.911927 l -1.18772,-0.01641 -1.25823,-0.04042 2.5e-4,0 z"
        transform="matrix(1.05,0,0,1.05,-5.3555131,0.50955272)"
        style="fill:#000000;fill-opacity:1;fill-rule:evenodd;stroke:none" />
    </g>
  </g>
</svg>
