<?xml version="1.0" encoding="UTF-8"?>
<svg xmlns="http://www.w3.org/2000/svg" width="400" height="400" viewBox="0 0 400 400">
  <title>Mumble background layer</title>
  <g id="background">
    <g id="circle" transform="translate(0,-652.36218)">
      <path
        d="M 385.62498,214.43469 A 178.98123,174.04742 0 0 1 206.64375,388.48212 178.98123,174.04742 0 0 1 27.662521,214.43469 178.98123,174.04742 0 0 1 206.64375,40.387268 178.98123,174.04742 0 0 1 385.62498,214.43469 Z"
        transform="matrix(1.0422741,0,0,1.0695007,-13.735541,622.74462)"
        style="opacity:0.9;fill:#ffffff;stroke:none;display:inline" />
      <path
        d="M 385.62498,214.43469 A 178.98123,174.04742 0 0 1 206.64375,388.48212 178.98123,174.04742 0 0 1 27.662521,214.43469 178.98123,174.04742 0 0 1 206.64375,40.387268 178.98123,174.04742 0 0 1 385.62498,214.43469 Z"
        transform="matrix(1.0641261,0,0,1.0786838,-20.794262,620.64438)"
        style="fill:#ffffff;stroke:none;display:inline" />
    </g>
  </g>
</svg>
