<?xml version="1.0" encoding="UTF-8"?>
<svg xmlns="http://www.w3.org/2000/svg" width="400" height="400" viewBox="0 0 400 400">
  <title>Mumble mic layer</title>
  <g id="mic">
    <path
      d="m 290.42422,313.15625 c -0.69916,-0.007 -3.31052,-0.57507 -3.94043,-0.16697 0,0 -1.03559,3.01675 -4.60424,5.67254 -3.13272,2.33137 -6.10765,4.56617 -9.29463,6.66254 -2.86157,1.88231 -5.93275,3.91773 -8.80984,5.30245 -2.26396,1.08961 -4.11397,1.24819 -4.11397,1.24819 l -32.21955,0 c -2.01273,0 -3.66178,1.58716 -3.66178,3.5625 l 0,0.875 c 0,1.97534 1.64905,3.59375 3.66178,3.59375 l 33.87945,0 c 0.77968,0 3.59712,-0.82022 5.27249,-1.55528 4.17684,-1.83257 6.89898,-4.16602 11.7099,-7.02744 5.11436,-3.27118 14.57263,-10.88603 14.57263,-10.88603 1.67973,-1.08826 2.12779,-3.28897 1.01893,-4.9375 l -0.47763,-0.75 c -0.69304,-1.03033 -1.82785,-1.58241 -2.99311,-1.59375 z"
      transform="matrix(1.05,0,0,1.05,-5.3555131,0.50955272)"
      style="fill:#000000;fill-opacity:1;fill-rule:evenodd;stroke:none" />
    <path
      d="m 194.74412,325.86444 a 22.130014,13.831259 0 1 1 -44.26003,0 22.130014,13.831259 0 1 1 44.26003,0 z"
      transform="matrix(1.304789,0,0,1.21464,-20.460693,-43.799678)"
      style="fill:#000000;fill-opacity:1;fill-rule:evenodd;stroke:none" />
  </g>
</svg>
