<?xml version="1.0" encoding="UTF-8"?>
<svg xmlns="http://www.w3.org/2000/svg" width="400" height="400" viewBox="0 0 400 400">
  <title>Mumble sign layer</title>
  <g id="sign">
    <rect x="131.63644" y="188.83058" width="140.83455" height="111.88522" style="fill:#000000;fill-opacity:1;stroke:none" />
    <path
      d="m 189.84375,226.6931 c -4e-5,2.31252 -0.43754,4.34376 -1.3125,6.09375 c -0.87504,1.75001 -2.05212,3.19793 -3.53125,4.34375 c -1.75004,1.37501 -3.67191,2.35417 -5.76563,2.9375 c -2.09377,0.58334 -4.75523,0.875 -7.98437,0.875 l -18.625,0 l 0,-46.53125 l 16.4375,0 c 3.41664,5e-5 6.00518,0.13026 7.76562,0.39063 c 1.76039,0.26046 3.41143,0.80734 4.95313,1.64062 c 1.66663,0.89588 2.91142,2.0938 3.73437,3.59375 c 0.82288,1.50004 1.23434,3.22921 1.23438,5.1875 c -4e-5,2.27087 -0.56775,4.2917 -1.70313,6.0625 c -1.13545,1.77087 -2.70315,3.07295 -4.70312,3.90625 l 0,0.25 c 2.87496,0.6042 5.17705,1.83857 6.90625,3.70313 c 1.72913,1.8646 2.59371,4.38023 2.59375,7.54687 z M 174.875,207.5681 c -3e-5,-0.74996 -0.19274,-1.52079 -0.57813,-2.3125 c -0.38544,-0.79163 -0.9844,-1.36454 -1.79687,-1.71875 c -0.77086,-0.33329 -1.68231,-0.51558 -2.73438,-0.54687 c -1.0521,-0.0312 -2.61981,-0.0468 -4.70312,-0.0469 l -0.8125,0 l 0,9.84375 l 1.46875,0 c 1.99998,3e-5 3.40102,-0.0208 4.20312,-0.0625 c 0.80207,-0.0416 1.63019,-0.26038 2.48438,-0.65625 c 0.93747,-0.43747 1.58331,-1.04163 1.9375,-1.8125 c 0.35414,-0.7708 0.53122,-1.66663 0.53125,-2.6875 z m 2.9375,18.90625 c -3e-5,-1.43748 -0.2917,-2.56248 -0.875,-3.375 c -0.58336,-0.81248 -1.45836,-1.42706 -2.625,-1.84375 c -0.70836,-0.27081 -1.68232,-0.42185 -2.92188,-0.45312 c -1.2396,-0.0312 -2.90106,-0.0469 -4.98437,-0.0469 l -2.15625,0 l 0,11.65625 l 0.625,0 c 3.04165,1e-5 5.14581,-0.0208 6.3125,-0.0625 c 1.16664,-0.0416 2.35414,-0.3229 3.5625,-0.84375 c 1.06247,-0.45832 1.83851,-1.13019 2.32812,-2.01562 c 0.48956,-0.88541 0.73435,-1.89061 0.73438,-3.01563 z"
      transform="matrix(1.100722,0,0,2.0000717,-28.290859,-190.59736)"
      style="fill:#000000;fill-opacity:0.25;stroke:none" />
    <path
      d="m 189.84375,226.6931 c -4e-5,2.31252 -0.43754,4.34376 -1.3125,6.09375 c -0.87504,1.75001 -2.05212,3.19793 -3.53125,4.34375 c -1.75004,1.37501 -3.67191,2.35417 -5.76563,2.9375 c -2.09377,0.58334 -4.75523,0.875 -7.98437,0.875 l -18.625,0 l 0,-46.53125 l 16.4375,0 c 3.41664,5e-5 6.00518,0.13026 7.76562,0.39063 c 1.76039,0.26046 3.41143,0.80734 4.95313,1.64062 c 1.66663,0.89588 2.91142,2.0938 3.73437,3.59375 c 0.82288,1.50004 1.23434,3.22921 1.23438,5.1875 c -4e-5,2.27087 -0.56775,4.2917 -1.70313,6.0625 c -1.13545,1.77087 -2.70315,3.07295 -4.70312,3.90625 l 0,0.25 c 2.87496,0.6042 5.17705,1.83857 6.90625,3.70313 c 1.72913,1.8646 2.59371,4.38023 2.59375,7.54687 z M 174.875,207.5681 c -3e-5,-0.74996 -0.19274,-1.52079 -0.57813,-2.3125 c -0.38544,-0.79163 -0.9844,-1.36454 -1.79687,-1.71875 c -0.77086,-0.33329 -1.68231,-0.51558 -2.73438,-0.54687 c -1.0521,-0.0312 -2.61981,-0.0468 -4.70312,-0.0469 l -0.8125,0 l 0,9.84375 l 1.46875,0 c 1.99998,3e-5 3.40102,-0.0208 4.20312,-0.0625 c 0.80207,-0.0416 1.63019,-0.26038 2.48438,-0.65625 c 0.93747,-0.43747 1.58331,-1.04163 1.9375,-1.8125 c 0.35414,-0.7708 0.53122,-1.66663 0.53125,-2.6875 z m 2.9375,18.90625 c -3e-5,-1.43748 -0.2917,-2.56248 -0.875,-3.375 c -0.58336,-0.81248 -1.45836,-1.42706 -2.625,-1.84375 c -0.70836,-0.27081 -1.68232,-0.42185 -2.92188,-0.45312 c -1.2396,-0.0312 -2.90106,-0.0469 -4.98437,-0.0469 l -2.15625,0 l 0,11.65625 l 0.625,0 c 3.04165,1e-5 5.14581,-0.0208 6.3125,-0.0625 c 1.16664,-0.0416 2.35414,-0.3229 3.5625,-0.84375 c 1.06247,-0.45832 1.83851,-1.13019 2.32812,-2.01562 c 0.48956,-0.88541 0.73435,-1.89061 0.73438,-3.01563 z"
      transform="matrix(1.100722,0,0,2.0000717,-23.811797,-190.28066)"
      style="fill:#ffffff;fill-opacity:1;stroke:none;font-family:Tahoma" />
    <path
      d="m 187.3125,197.5625 l 0,94.53125 l 14.125,0 l 0.0625,0 l 21.375,0 l 0,-19.25 l -21.375,0 l 0,-75.28125 l -14.1875,0 z"
      style="fill:#ffffff;fill-opacity:1;stroke:none" />
    <path
      d="m 227.8125,197.5 l 0,94.53125 l 14.1875,0 l 21.375,0 l 0,-19.25 l -21.375,0 L 242,250.5 l 19.65625,0 l 0,-18.65625 l -19.65625,0 L 242,216.75 l 21.375,0 l 0,-19.25 l -21.375,0 l -0.0625,0 l -14.125,0 z"
      style="fill:#ffffff;fill-opacity:1;stroke:none;display:inline" />
  </g>
</svg>
